<svg width="116" height="40" viewBox="0 0 116 40" fill="none" xmlns="http://www.w3.org/2000/svg">
<path d="M20.048 0C8.9773 0 0 8.95579 0 20C0 31.0442 8.9773 40 20.048 40C31.1188 40 40.0961 31.0442 40.0961 20C40.0961 8.95579 31.1188 0 20.048 0ZM5.95532 19.1326C9.21366 20.3116 12.1808 19.6968 14.9242 17.6842C15.9245 16.9474 16.8235 16.1011 17.6845 15.2042C18.4653 14.3916 19.2883 13.6295 20.3055 13.1158C20.6727 12.9305 21.0568 12.7874 21.4746 12.7958C22.0064 12.8084 22.2976 13.12 22.2681 13.6547C22.2554 13.8863 22.2006 14.1179 22.0866 14.3158C21.4831 15.3726 21.3353 16.5263 21.3396 17.7095C21.3396 17.9453 21.2636 18.08 21.061 18.1979C18.9507 19.4147 16.7602 20.4337 14.3502 20.9137C10.7753 21.6295 7.52962 20.9011 4.61738 18.7074C4.55829 18.6611 4.48654 18.6274 4.46544 18.5263C4.96769 18.7326 5.45307 18.9516 5.9511 19.1326H5.95532ZM33.5077 12.72C32.3259 14.7368 31.2327 16.7916 30.5026 19.0232C30.0974 20.2653 29.8104 21.5284 29.8652 22.8505C29.8906 23.4526 30.013 24.0379 30.2493 24.5937C30.2958 24.7032 30.3802 24.7747 30.4224 24.8211L31.8954 26.3453C32.0093 26.4674 32.8957 27.4274 32.6846 27.7137C32.5622 27.8779 31.9756 27.9284 31.5282 27.7853C31.4311 27.7516 31.2707 27.6884 31.1525 27.7642C31.0723 27.8147 31.0259 27.9242 31.009 28.1095C30.95 28.6905 30.8233 29.2674 30.6418 29.8274C30.4477 30.4379 30.2113 30.5137 29.7133 30.1137C29.1351 29.6463 28.7257 29.0484 28.4302 28.3747C28.1854 27.8232 27.9997 27.7347 27.4173 27.92C26.9783 28.0589 26.5436 28.2105 26.1047 28.3368C24.5894 28.7663 23.0447 28.8968 21.4746 28.8632C18.6637 28.8 15.9371 28.3116 13.3457 27.1832C12.5606 26.8421 11.7587 26.5095 11.0665 26.0168C8.37375 24.1053 5.68098 22.1853 4.03493 19.2C3.83234 18.8337 3.61709 18.48 3.47359 18.0505C3.65507 18.0589 3.7015 18.1937 3.78591 18.2737C5.59235 19.9495 7.64358 21.1537 10.1 21.6C12.0246 21.9495 13.9197 21.7811 15.7936 21.2674C18.7903 20.4463 21.4324 18.9053 23.9648 17.1621C25.9443 15.8021 27.7929 14.2695 29.7217 12.8421C30.5954 12.1937 31.5493 11.7221 32.6213 11.5158C32.9927 11.4442 33.419 11.3095 33.6849 11.6884C33.9339 12.0463 33.6934 12.4042 33.5077 12.72Z" fill="#005EFC"/>
<path d="M51.9606 11.7664C51.682 11.7664 51.5427 11.6359 51.5427 11.3706V9.4169C51.5427 9.13901 51.682 9.00006 51.9606 9.00006H53.6826C53.805 9.00006 53.9021 9.03796 53.9611 9.11796C54.0245 9.19375 54.054 9.2948 54.054 9.42111V11.3748C54.054 11.6401 53.9316 11.7706 53.6826 11.7706H51.9606V11.7664ZM51.6356 26.2885V13.859H53.9654V26.2885H51.6356Z" fill="black"/>
<path d="M57.2236 27.2885V14.859H59.0849L59.5492 16.2064C60.1063 15.8022 60.7732 15.4443 61.5413 15.1243C62.3095 14.8085 63.1072 14.6485 63.9302 14.6485C64.863 14.6485 65.61 14.8464 66.1798 15.2422C66.7454 15.638 67.1548 16.1601 67.4038 16.8085C67.6528 17.4611 67.7752 18.1643 67.7752 18.9222V27.2885H65.4454V19.2043C65.4454 18.7074 65.3484 18.278 65.1542 17.9159C64.9601 17.5538 64.6899 17.2674 64.3523 17.0696C64.0104 16.8674 63.5926 16.7664 63.0945 16.7664C62.6303 16.7664 62.1998 16.8127 61.803 16.9053C61.4063 16.998 61.0306 17.1243 60.6719 17.2885C60.3131 17.4527 59.9417 17.6506 59.5534 17.8822V27.2927H57.2236V27.2885Z" fill="black"/>
<path d="M70.9658 27.2885V9.56213H73.2956V19.6253H74.9965L78.4659 14.8632H80.8885L76.7186 20.6737L81.1924 27.2969H78.7487L74.929 21.7221H73.2998V27.2969H70.97L70.9658 27.2885Z" fill="black"/>
<path d="M83.1045 27.2886V14.8591H84.8983L85.4343 16.9517C85.9619 16.3159 86.5528 15.7812 87.2027 15.3475C87.8569 14.9138 88.6167 14.6949 89.4861 14.6949C89.6887 14.6949 89.8828 14.7075 90.0685 14.7286C90.2543 14.7538 90.4315 14.7875 90.6046 14.8338V17.2254C90.3851 17.1959 90.1614 17.1665 89.9293 17.1454C89.6971 17.1201 89.4566 17.1117 89.2075 17.1117C88.68 17.1117 88.2073 17.1749 87.7852 17.297C87.3673 17.4191 86.9664 17.6086 86.5865 17.8654C86.2067 18.1223 85.8226 18.4338 85.4343 18.8086V27.2886H83.1045Z" fill="black"/>
<path d="M94.8168 27.4274C93.901 27.4274 93.1455 27.1537 92.5461 26.6021C91.9468 26.0505 91.6514 25.2884 91.6514 24.3116V23.3348C91.6514 22.3748 91.9806 21.5874 92.6432 20.9769C93.3016 20.3663 94.3019 20.059 95.6357 20.059H99.5271V18.7579C99.5271 18.2779 99.4469 17.8695 99.2823 17.5369C99.1177 17.2042 98.8222 16.9516 98.3875 16.7832C97.9528 16.6148 97.307 16.5263 96.4545 16.5263H92.6348V15.1537C93.1919 15.0316 93.8503 14.9221 94.6016 14.8295C95.3529 14.7369 96.235 14.6821 97.2437 14.6653C98.2693 14.6653 99.1261 14.7916 99.8183 15.0484C100.51 15.3053 101.025 15.7221 101.367 16.3032C101.709 16.8842 101.878 17.6548 101.878 18.6148V27.28H100.038L99.641 25.9074C99.5482 25.9705 99.354 26.08 99.0586 26.2442C98.7631 26.4084 98.3875 26.5811 97.9275 26.7663C97.4674 26.9516 96.9736 27.1074 96.4376 27.2295C95.9016 27.3516 95.3613 27.4148 94.8168 27.4148V27.4274ZM95.8889 25.7348C96.121 25.7516 96.3954 25.7263 96.7161 25.6632C97.0327 25.6 97.3535 25.5284 97.67 25.4442C97.9866 25.36 98.282 25.2716 98.5563 25.179C98.8265 25.0863 99.0544 25.0063 99.2316 24.9348C99.4089 24.8632 99.506 24.8211 99.5229 24.8084V21.2295L96.2603 21.3684C95.4542 21.4148 94.8759 21.6169 94.5256 21.9705C94.1753 22.3284 94.0023 22.7916 94.0023 23.3642V23.92C94.0023 24.3705 94.0951 24.7284 94.2808 25.0021C94.4665 25.2716 94.7029 25.4653 94.9899 25.5705C95.2769 25.68 95.5766 25.7348 95.8847 25.7348H95.8889Z" fill="black"/>
<path d="M108.559 32.7959L110.074 27.2885C109.576 27.2717 109.104 27.1706 108.652 26.977C108.2 26.7833 107.804 26.4675 107.453 26.0254C107.103 25.5833 106.82 24.9896 106.605 24.2485L103.811 14.8591H106.255L108.77 23.7601C108.91 24.177 109.07 24.497 109.247 24.7117C109.424 24.9306 109.606 25.078 109.783 25.1664C109.96 25.2506 110.121 25.3012 110.26 25.318C110.399 25.3349 110.484 25.3433 110.518 25.3433L113.43 14.8633H115.827L111.539 30.5012L110.421 32.8001H108.559V32.7959Z" fill="black"/>
</svg>
